<svg width="810" height="915" viewBox="0 0 810 915" fill="none" xmlns="http://www.w3.org/2000/svg">
<path fill-rule="evenodd" clip-rule="evenodd" d="M45.3595 104.587C70.4108 112.246 96.9277 98.1463 104.587 73.095C112.246 48.0436 98.1463 21.5267 73.095 13.8678C48.0437 6.20881 21.5268 20.3081 13.8678 45.3594C6.20887 70.4108 20.3082 96.9277 45.3595 104.587Z" fill="#BFDACE"/>
<path opacity="0.942499" fill-rule="evenodd" clip-rule="evenodd" d="M340.407 202.34C453.199 88.1806 747.682 243.717 702.894 403.27C658.106 562.823 624.039 759.246 476.925 810.928C329.811 862.611 148.568 762.146 114.439 609.999C80.3092 457.852 227.616 316.5 340.407 202.34Z" fill="#BFDACE"/>
<path fill-rule="evenodd" clip-rule="evenodd" d="M109.633 827.548C128.208 833.227 147.869 822.772 153.548 804.198C159.227 785.623 148.773 765.961 130.198 760.283C111.623 754.604 91.9618 765.058 86.2829 783.633C80.604 802.207 91.0582 821.869 109.633 827.548Z" fill="#C3DCD1"/>
<path opacity="0.327799" fill-rule="evenodd" clip-rule="evenodd" d="M42.0391 365.039C56.42 369.436 71.6424 361.342 76.0391 346.961C80.4358 332.58 72.3419 317.358 57.9609 312.961C43.58 308.564 28.3576 316.658 23.9609 331.039C19.5642 345.42 27.6581 360.642 42.0391 365.039Z" fill="#E2F4E2"/>
<path fill-rule="evenodd" clip-rule="evenodd" d="M46.8159 349.416C52.5683 351.174 58.6572 347.937 60.4159 342.184C62.1746 336.432 58.9371 330.343 53.1847 328.584C47.4323 326.826 41.3433 330.063 39.5847 335.816C37.826 341.568 41.0635 347.657 46.8159 349.416Z" fill="#BFDACE"/>
</svg>
