<svg width="748" height="1030" viewBox="0 0 748 1030" fill="none" xmlns="http://www.w3.org/2000/svg">
<path d="M-32.2995 70.291C-101.853 54.3986 -146.285 37.4549 -222.764 58.6213C-299.243 79.7877 -359.425 145.989 -367.086 263.581C-376.663 410.571 -263.472 351.423 -199.797 428.267C-136.122 505.11 -417.885 720.82 -415.99 854.74C-414.096 988.661 -197.328 978.94 -44.5414 942.423C108.245 905.906 243.651 984.151 312.399 1007.59C381.147 1031.02 493.708 1052.76 566.429 980.855C639.149 908.948 603.849 760.134 600.983 718.731C598.117 677.327 597.493 579.528 670.025 494.228C728.049 425.989 743.984 351.913 747.42 322.922C750.857 293.932 740.307 220.974 680.463 139.476C609.576 42.9386 500.297 -4.03132 403.308 0.27087C306.319 4.57303 218.937 78.9851 135.564 96.4686C52.1916 113.952 54.6423 90.1564 -32.2995 70.291Z" fill="#BFDACE"/>
</svg>
