<svg width="320" height="1353" viewBox="0 0 320 1353" fill="none" xmlns="http://www.w3.org/2000/svg">
<path d="M-548.933 311.748C-615.761 308.298 -658.819 300.374 -730.21 329.129C-801.601 357.885 -855.098 422.247 -856 522.393C-857.127 647.576 -752.973 581.582 -688.421 637.213C-623.868 692.844 -879.432 914.798 -870.387 1027.33C-861.342 1139.87 -656.274 1100.71 -513.339 1048.12C-370.405 995.535 -237.744 1042.1 -171.271 1052.02C-104.799 1061.94 3.13677 1064.17 68.2166 993.206C133.297 922.247 91.7617 801.94 86.8022 767.473C81.8428 733.007 75.9582 650.717 140.134 568.504C191.474 502.733 202.577 438.06 204.268 413.149C205.958 388.238 192.003 328.291 130.833 268.192C58.375 197.003 -47.8132 173.051 -139.57 190.532C-231.326 208.013 -310.176 283.177 -388.305 309.815C-466.434 336.454 -465.397 316.06 -548.933 311.748Z" fill="#BFDACE"/>
</svg>
