<svg width="846" height="696" viewBox="0 0 846 696" fill="none" xmlns="http://www.w3.org/2000/svg">
<path fill-rule="evenodd" clip-rule="evenodd" d="M707 0.209747C557 12.5078 428.254 -26.6687 297.74 213.838C235.833 327.92 54.2331 554.857 280.141 636.597C376.384 671.42 564.101 740.31 705.984 653.315C923.419 519.994 857 -12.0883 707 0.209747Z" fill="#BFDACE"/>
<path opacity="0.4" fill-rule="evenodd" clip-rule="evenodd" d="M32.5488 315.049C50.525 320.545 69.5529 310.427 75.0488 292.451C80.5447 274.475 70.4274 255.447 52.4512 249.951C34.4749 244.455 15.4471 254.573 9.95117 272.549C4.45529 290.525 14.5726 309.553 32.5488 315.049Z" fill="#DBF1DB"/>
<path fill-rule="evenodd" clip-rule="evenodd" d="M38.5195 295.52C45.71 297.718 53.3212 293.671 55.5195 286.481C57.7179 279.29 53.671 271.679 46.4805 269.481C39.29 267.282 31.6788 271.329 29.4805 278.52C27.2821 285.71 31.329 293.321 38.5195 295.52Z" fill="#C3DCD1"/>
</svg>
