<svg width="802" height="1615" viewBox="0 0 802 1615" fill="none" xmlns="http://www.w3.org/2000/svg">
<path d="M1072.23 709.806C1137.7 739.06 1183.99 752.259 1230.62 815.656C1277.24 879.054 1281.41 968.987 1210.27 1068.67C1121.34 1193.26 1070.6 1076.95 969.759 1100.51C868.919 1124.08 950.279 1468.97 860.858 1576.06C771.437 1683.15 606.275 1544.09 509.338 1422.1C412.401 1300.11 253.875 1281.39 184.084 1258.72C114.292 1236.05 10.9429 1185.49 0.603116 1083.36C-9.73664 981.226 115.898 882.316 145.349 850.587C174.8 818.858 239.501 740.191 238.103 627.348C236.985 537.074 273.008 467.559 289.321 442.048C305.635 416.536 361.882 363.955 462.747 334.307C582.224 299.189 699.541 327.37 773.471 389.552C847.4 451.734 867.698 564.766 922.199 629.36C976.699 693.954 990.382 673.238 1072.23 709.806Z" fill="#BFDACE"/>
<path fill-rule="evenodd" clip-rule="evenodd" d="M138.632 717.548C157.207 723.227 176.869 712.772 182.548 694.198C188.226 675.623 177.772 655.961 159.198 650.283C140.623 644.604 120.961 655.058 115.282 673.633C109.604 692.207 120.058 711.869 138.632 717.548Z" fill="#BFDACE"/>
<path fill-rule="evenodd" clip-rule="evenodd" d="M658.818 110.255C685.227 118.329 713.181 103.465 721.255 77.0562C729.329 50.6473 714.465 22.6933 688.056 14.6193C661.647 6.54529 633.693 21.4087 625.619 47.8176C617.545 74.2265 632.409 102.18 658.818 110.255Z" fill="#BFDACE"/>
</svg>
