<svg width="320" height="1086" viewBox="0 0 320 1086" fill="none" xmlns="http://www.w3.org/2000/svg">
<path d="M826.234 355.374C868.074 370.279 898.035 376.145 925.646 413.333C953.257 450.521 951.4 506.453 899.198 572.333C833.946 654.683 806.324 584.669 738.366 604.554C670.408 624.44 706.571 835.583 641.887 907.029C577.203 978.475 475.012 900.131 417.105 828.942C359.198 757.754 255.226 754.201 210.192 743.628C165.158 733.056 99.342 706.792 97.737 643.559C96.132 580.326 184.367 512.131 205.489 490.812C226.61 469.492 273.473 417.06 278.336 346.683C282.227 290.381 309.637 245.135 321.744 228.371C333.851 211.607 373.78 175.894 442.066 152.211C522.952 124.158 599.161 135.733 644.908 170.762C690.654 205.79 698.291 275.316 731.053 312.847C763.815 350.378 773.934 336.743 826.234 355.374Z" fill="#BFDACE"/>
</svg>
