<svg width="1440" height="705" viewBox="0 0 1440 705" fill="none" xmlns="http://www.w3.org/2000/svg">
<path d="M446.478 56.2924C313.553 37.0129 231.862 17.6064 67.3602 36.75C-97.1421 55.8935 -250.109 122.685 -321.399 245.159C-410.512 398.252 -153.839 340.873 -61.7175 423.561C30.4043 506.248 -641.03 720.57 -700.772 860.461C-760.515 1000.35 -318.122 998.579 7.77698 966.357C333.675 934.135 569.997 1021.06 697.714 1048.18C825.431 1075.31 1042.44 1102.35 1223.44 1030.09C1404.43 957.823 1403.78 801.093 1417.64 757.755C1431.51 714.417 1476.67 612.287 1663.64 526.034C1813.22 457.031 1880.56 380.309 1901.27 350.174C1921.97 320.04 1935.29 243.462 1853.12 156.062C1755.78 52.5354 1557.38 -0.72511 1359.46 0.019202C1161.54 0.763507 950.382 90.1085 773.066 90.1085C592.114 90.1085 612.634 80.3918 446.478 56.2924Z" fill="#F0F4F8"/>
</svg>
