<svg width="320" height="1178" viewBox="0 0 320 1178" fill="none" xmlns="http://www.w3.org/2000/svg">
<path d="M-154.522 248.509C-287.447 229.216 -369.138 209.797 -533.64 228.953C-698.142 248.11 -851.109 314.946 -922.399 437.503C-1011.51 590.699 -754.839 533.281 -662.718 616.025C-570.596 698.768 -1242.03 913.235 -1301.77 1053.22C-1361.51 1193.21 -919.122 1191.43 -593.223 1159.19C-267.325 1126.94 -31.0031 1213.93 96.7141 1241.07C224.431 1268.21 441.439 1295.27 622.436 1222.96C803.433 1150.65 802.78 993.812 816.644 950.445C830.509 907.078 875.672 804.879 1062.64 718.567C1212.22 649.518 1279.56 572.744 1300.26 542.589C1320.97 512.434 1334.29 435.804 1252.12 348.346C1154.78 244.749 956.376 191.453 758.457 192.198C560.538 192.942 349.382 282.348 172.066 282.348C-8.88625 282.348 11.6338 272.624 -154.522 248.509Z" fill="#F0F4F8"/>
</svg>
