<svg width="73" height="72" viewBox="0 0 73 72" fill="none" xmlns="http://www.w3.org/2000/svg">
<path fill-rule="evenodd" clip-rule="evenodd" d="M36.5 72C56.6584 72 73 55.8823 73 36C73 16.1177 56.6584 0 36.5 0C16.3416 0 0 16.1177 0 36C0 55.8823 16.3416 72 36.5 72Z" fill="#E1F5FA"/>
<circle cx="36" cy="36" r="23" fill="#C4C4C4"/>
<path fill-rule="evenodd" clip-rule="evenodd" d="M36.5 72C56.6584 72 73 55.8823 73 36C73 16.1177 56.6584 0 36.5 0C16.3416 0 0 16.1177 0 36C0 55.8823 16.3416 72 36.5 72Z" fill="#EFFCF6"/>
<circle cx="36" cy="36" r="23" fill="#4F8C82"/>
<path d="M36.2917 25.8334H48.375V28.25H36.2917V25.8334ZM36.2917 30.6667H43.5417V33.0834H36.2917V30.6667ZM36.2917 37.9167H48.375V40.3334H36.2917V37.9167ZM36.2917 42.75H43.5417V45.1667H36.2917V42.75ZM26.625 25.8334H33.875V33.0834H26.625V25.8334ZM29.0417 28.25V30.6667H31.4583V28.25H29.0417ZM26.625 37.9167H33.875V45.1667H26.625V37.9167ZM29.0417 40.3334V42.75H31.4583V40.3334H29.0417Z" fill="#EFFCF6"/>
</svg>
