<svg width="368" height="428" viewBox="0 0 368 428" fill="none" xmlns="http://www.w3.org/2000/svg">
<path fill-rule="evenodd" clip-rule="evenodd" d="M0 66.8438C0 66.8438 47.9114 66.8438 47.9114 105.753C47.9114 144.662 0 155.636 0 155.636V66.8438Z" fill="#4F8C82"/>
<path fill-rule="evenodd" clip-rule="evenodd" d="M0 32.0769C0 32.0769 39.7562 15.1455 39.7562 53.9882C39.7562 92.8308 0 120.718 0 120.718V32.0769Z" fill="#BFDACE"/>
<path fill-rule="evenodd" clip-rule="evenodd" d="M368 28.9324C368 28.9324 320.089 28.9324 320.089 67.8415C320.089 106.751 368 117.725 368 117.725V28.9324Z" fill="#4F8C82"/>
<path fill-rule="evenodd" clip-rule="evenodd" d="M368 56.8672C368 56.8672 320.089 80.3038 320.089 119.198C320.089 158.093 368 145.627 368 145.627V56.8672Z" fill="#BFDACE"/>
</svg>
