<svg width="73" height="72" viewBox="0 0 73 72" fill="none" xmlns="http://www.w3.org/2000/svg">
<path fill-rule="evenodd" clip-rule="evenodd" d="M36.5 72C56.6584 72 73 55.8823 73 36C73 16.1177 56.6584 0 36.5 0C16.3416 0 0 16.1177 0 36C0 55.8823 16.3416 72 36.5 72Z" fill="#EFFCF6"/>
<circle cx="36" cy="36" r="23" fill="#4F8C82"/>
<path d="M29.75 29.75V24.75C29.75 24.4185 29.8817 24.1005 30.1161 23.8661C30.3505 23.6317 30.6685 23.5 31 23.5H47.25C47.5815 23.5 47.8995 23.6317 48.1339 23.8661C48.3683 24.1005 48.5 24.4185 48.5 24.75V41C48.5 41.3315 48.3683 41.6495 48.1339 41.8839C47.8995 42.1183 47.5815 42.25 47.25 42.25H42.25V47.2412C42.25 47.9363 41.6888 48.5 40.9913 48.5H24.7588C24.5934 48.5002 24.4296 48.4677 24.2769 48.4045C24.1241 48.3413 23.9852 48.2486 23.8683 48.1317C23.7514 48.0148 23.6587 47.8759 23.5955 47.7231C23.5323 47.5704 23.4998 47.4066 23.5 47.2412L23.5038 31.0087C23.5038 30.3137 24.065 29.75 24.7625 29.75H29.75ZM32.25 29.75H40.9913C41.6863 29.75 42.25 30.3112 42.25 31.0087V39.75H46V26H32.25V29.75ZM31.6288 43.5L38.6988 36.4288L36.9313 34.6613L31.6288 39.965L28.975 37.3125L27.2075 39.08L31.6288 43.5Z" fill="#EFFCF6"/>
</svg>
