<svg width="130" height="128" viewBox="0 0 130 128" fill="none" xmlns="http://www.w3.org/2000/svg">
<path fill-rule="evenodd" clip-rule="evenodd" d="M52.1122 103.804C77.1635 111.463 103.68 97.3636 111.339 72.3123C118.998 47.261 104.899 20.7441 79.8477 13.0851C54.7964 5.42617 28.2795 19.5255 20.6205 44.5768C12.9616 69.6281 27.0609 96.145 52.1122 103.804Z" fill="#527C5A"/>
<g filter="url(#filter0_d)">
<path fill-rule="evenodd" clip-rule="evenodd" d="M6.87751 73.6011C4.39163 75.2086 4.45259 78.8657 6.99067 80.3895L56.3696 110.034C62.6596 113.811 70.5616 113.628 76.6705 109.566L121.994 79.4245C125.804 76.8906 125.489 71.1954 121.423 69.0967L69.3211 42.2045C64.5433 39.7385 58.8111 40.0182 54.2962 42.9378L6.87751 73.6011Z" fill="white"/>
</g>
<rect x="80.514" y="30.8792" width="17" height="27" rx="2" transform="rotate(16.528 80.514 30.8792)" fill="#8D9DDC"/>
<rect x="82.5972" y="29.3557" width="17" height="27" rx="2" transform="rotate(16.528 82.5972 29.3557)" fill="#B3BFF0"/>
<path fill-rule="evenodd" clip-rule="evenodd" d="M54.3054 55.9862C53.9694 55.4397 53.6551 54.9404 53.3625 54.4883C45.8414 56.96 41.3114 59.9303 39.7724 63.3992C38.2335 66.8681 37.6967 70.3954 38.1621 73.9813C46.7445 77.4194 54.881 78.6514 62.5715 77.6774C70.2621 76.7034 75.8174 74.3359 79.2373 70.575C79.39 67.8365 78.9651 64.9101 77.9624 61.7959C76.9702 58.7143 73.0728 56.6201 66.27 55.5133C66.199 55.4218 66.1268 55.3326 66.0538 55.2459C65.6883 55.6114 65.3692 55.9769 65.0658 56.3245C63.9981 57.5477 63.1239 58.5493 61.0986 58.5493C58.9429 58.5493 56.6582 57.8316 54.3054 55.9862Z" fill="#527C5A"/>
<path fill-rule="evenodd" clip-rule="evenodd" d="M61.4175 25.5058C56.1725 25.1896 52.9273 25.7179 51.6819 27.0908C49.8139 29.1501 45.5038 32.8096 46.2009 37.5185C46.898 42.2275 49.778 43.6374 51.6819 47.4621C52.9513 50.0119 56.0128 51.8065 60.8665 52.8458L60.8796 52.1992C61.0577 52.2144 61.237 52.2222 61.4175 52.2222C66.7943 52.2222 69.8645 47.1779 69.8645 40.1194C69.8645 38.2422 70.2844 34.5499 69.8645 32.7539C68.7054 27.7967 65.3644 25.5058 61.4175 25.5058Z" fill="#FAFAFA"/>
<path fill-rule="evenodd" clip-rule="evenodd" d="M67.0824 32.2982C63.213 32.9293 56.2693 29.3734 56.5305 29.3734C56.5305 29.3734 55.7767 32.8331 53.8636 33.683C51.0463 34.9347 50.2052 39.9334 50.1908 45.0206C48.4045 42.843 46.5987 40.6174 46.1193 38.9135C45.4003 36.3575 45.3192 29.9188 47.2868 26.8345C49.2543 23.7502 51.9322 21.9679 56.5305 21.1093C59.3286 20.5868 64.4921 21.984 66.6946 24.3048C69.1883 26.9327 71.4125 26.0849 72.3944 25.5027C72.3944 25.5027 72.5999 28.4773 71.5499 30.1049C70.947 31.0395 70.9518 31.6671 67.0824 32.2982Z" fill="#CFDFC7"/>
<path fill-rule="evenodd" clip-rule="evenodd" d="M53.7533 50.1099L53.2444 54.6902C54.2622 56.217 54.7188 56.674 55.2801 57.0295C57.0991 58.1812 60.1575 58.7617 61.3873 58.7617C62.6006 58.7617 63.2538 58.1215 64.3742 57.0295C64.6739 56.7374 65.5059 56.0466 65.9677 55.1992V50.6188C63.6564 51.7158 61.2028 52.252 59.8605 52.1456C58.5181 52.0392 57.0066 51.8481 53.7533 50.1099Z" fill="#F1F0F0"/>
<defs>
<filter id="filter0_d" x="0.0495605" y="37.5337" width="129.622" height="82.2109" filterUnits="userSpaceOnUse" color-interpolation-filters="sRGB">
<feFlood flood-opacity="0" result="BackgroundImageFix"/>
<feColorMatrix in="SourceAlpha" type="matrix" values="0 0 0 0 0 0 0 0 0 0 0 0 0 0 0 0 0 0 127 0"/>
<feOffset dy="2"/>
<feGaussianBlur stdDeviation="2.5"/>
<feColorMatrix type="matrix" values="0 0 0 0 0.00135416 0 0 0 0 0.1625 0 0 0 0 0.134936 0 0 0 0.15 0"/>
<feBlend mode="normal" in2="BackgroundImageFix" result="effect1_dropShadow"/>
<feBlend mode="normal" in="SourceGraphic" in2="effect1_dropShadow" result="shape"/>
</filter>
</defs>
</svg>
