<svg width="401" height="679" viewBox="0 0 401 679" fill="none" xmlns="http://www.w3.org/2000/svg">
<path fill-rule="evenodd" clip-rule="evenodd" d="M45.6897 103.63C70.741 111.289 97.1925 97.4041 104.771 72.6168C112.349 47.8296 98.1842 21.5267 73.1329 13.8678C48.0815 6.20881 21.6301 20.094 14.0519 44.8813C6.47363 69.6685 20.6384 95.9714 45.6897 103.63Z" fill="#BFDACE"/>
<path fill-rule="evenodd" clip-rule="evenodd" d="M346.632 668.548C365.207 674.227 384.869 663.772 390.548 645.198C396.226 626.623 385.772 606.961 367.198 601.283C348.623 595.604 328.961 606.058 323.282 624.633C317.604 643.207 328.058 662.869 346.632 668.548Z" fill="#BFDACE"/>
<path opacity="0.327799" fill-rule="evenodd" clip-rule="evenodd" d="M293.614 409.357C301.536 411.779 309.922 407.32 312.344 399.398C314.766 391.476 310.308 383.09 302.385 380.668C294.463 378.246 286.077 382.705 283.655 390.627C281.233 398.549 285.692 406.935 293.614 409.357Z" fill="#1B6A7B" fill-opacity="0.62"/>
<path fill-rule="evenodd" clip-rule="evenodd" d="M296.245 400.75C299.414 401.719 302.769 399.936 303.738 396.767C304.706 393.598 302.923 390.244 299.754 389.275C296.585 388.306 293.231 390.089 292.262 393.258C291.293 396.427 293.077 399.782 296.245 400.75Z" fill="#1B6A7B"/>
</svg>
