<svg width="73" height="72" viewBox="0 0 73 72" fill="none" xmlns="http://www.w3.org/2000/svg">
<path fill-rule="evenodd" clip-rule="evenodd" d="M36.5 72C56.6584 72 73 55.8823 73 36C73 16.1177 56.6584 0 36.5 0C16.3416 0 0 16.1177 0 36C0 55.8823 16.3416 72 36.5 72Z" fill="#EFFCF6"/>
<circle cx="36" cy="36" r="23" fill="#4F8C82"/>
<path d="M26 47.5C26 44.8478 27.0536 42.3043 28.9289 40.4289C30.8043 38.5536 33.3478 37.5 36 37.5C38.6522 37.5 41.1957 38.5536 43.0711 40.4289C44.9464 42.3043 46 44.8478 46 47.5H26ZM36 36.25C31.8562 36.25 28.5 32.8938 28.5 28.75C28.5 24.6062 31.8562 21.25 36 21.25C40.1437 21.25 43.5 24.6062 43.5 28.75C43.5 32.8938 40.1437 36.25 36 36.25Z" fill="#EFFCF6"/>
</svg>
