<svg width="130" height="128" viewBox="0 0 130 128" fill="none" xmlns="http://www.w3.org/2000/svg">
<path fill-rule="evenodd" clip-rule="evenodd" d="M52.1122 103.804C77.1635 111.463 103.68 97.3636 111.339 72.3123C118.998 47.261 104.899 20.7441 79.8477 13.0851C54.7964 5.42617 28.2795 19.5255 20.6205 44.5768C12.9616 69.6281 27.0609 96.145 52.1122 103.804Z" fill="#527C5A"/>
<g filter="url(#filter0_d)">
<path fill-rule="evenodd" clip-rule="evenodd" d="M6.87751 73.6011C4.39163 75.2086 4.45259 78.8657 6.99067 80.3895L56.3696 110.034C62.6596 113.811 70.5616 113.628 76.6705 109.566L121.994 79.4245C125.804 76.8906 125.489 71.1954 121.423 69.0967L69.3211 42.2045C64.5433 39.7385 58.8111 40.0182 54.2962 42.9378L6.87751 73.6011Z" fill="white"/>
</g>
<path d="M79.5 38.5L52.5 42.9999L58 45.5L88 42L86.7188 40.7188C85.0004 39.0004 82.5939 38.1562 80.1785 38.4246L79.5 38.5Z" fill="#CFDFC7"/>
<path d="M58 43.5L55.2522 43.0004C50.9553 42.2191 47 45.5202 47 49.8875V68.9286L50 73L58 43.5Z" fill="#CFDFC7"/>
<path d="M50 51.8571C50 47.9113 52.877 44.5547 56.7765 43.9513L82.4233 39.9821C87.3902 39.2134 91.8274 43.1614 91.6413 48.1841L91.2377 59.0823C91.0988 62.8315 88.3732 65.9805 84.6827 66.6556L50 73V51.8571Z" fill="#95B19B"/>
<path d="M50 80V73L63 70.5L50 80Z" fill="#95B19B"/>
<path d="M47.5 78.5L47 69L50 73V80L47.5 78.5Z" fill="#CFDFC7"/>
<path d="M57 53.2269C57 52.5159 57.5072 51.9061 58.2064 51.7766L82.2565 47.3229C83.1633 47.155 84 47.851 84 48.7731C84 49.4841 83.4928 50.0939 82.7936 50.2234L58.7435 54.6771C57.8367 54.845 57 54.149 57 53.2269Z" fill="#CFDFC7"/>
<path d="M57 58.7269C57 58.0159 57.5072 57.4061 58.2064 57.2766L82.2565 52.8229C83.1633 52.655 84 53.351 84 54.2731C84 54.9841 83.4928 55.5939 82.7936 55.7234L58.7435 60.1771C57.8367 60.345 57 59.649 57 58.7269Z" fill="#CFDFC7"/>
<path d="M57 64.7236C57 64.0141 57.5053 63.4053 58.2026 63.2745L71.254 60.8274C72.1613 60.6573 73 61.3533 73 62.2764C73 62.9859 72.4947 63.5947 71.7974 63.7255L58.746 66.1726C57.8387 66.3427 57 65.6467 57 64.7236Z" fill="#CFDFC7"/>
<circle cx="47.3644" cy="40.3644" r="12.3644" fill="#8D9DDC"/>
<path d="M49.4251 53.4158C42.7859 53.4158 37.4042 48.0341 37.4042 41.3949C37.4042 34.7558 42.7859 29.374 49.4251 29.374C56.0642 29.374 61.446 34.7558 61.446 41.3949C61.446 48.0341 56.0642 53.4158 49.4251 53.4158ZM50.6272 41.3949V35.3845H48.223V43.7991H55.4355V41.3949H50.6272Z" fill="#B3BFF0"/>
<defs>
<filter id="filter0_d" x="0.0495605" y="37.5337" width="129.622" height="82.2109" filterUnits="userSpaceOnUse" color-interpolation-filters="sRGB">
<feFlood flood-opacity="0" result="BackgroundImageFix"/>
<feColorMatrix in="SourceAlpha" type="matrix" values="0 0 0 0 0 0 0 0 0 0 0 0 0 0 0 0 0 0 127 0"/>
<feOffset dy="2"/>
<feGaussianBlur stdDeviation="2.5"/>
<feColorMatrix type="matrix" values="0 0 0 0 0.00135416 0 0 0 0 0.1625 0 0 0 0 0.134936 0 0 0 0.15 0"/>
<feBlend mode="normal" in2="BackgroundImageFix" result="effect1_dropShadow"/>
<feBlend mode="normal" in="SourceGraphic" in2="effect1_dropShadow" result="shape"/>
</filter>
</defs>
</svg>
