<svg width="73" height="72" viewBox="0 0 73 72" fill="none" xmlns="http://www.w3.org/2000/svg">
<path fill-rule="evenodd" clip-rule="evenodd" d="M36.5 72C56.6584 72 73 55.8823 73 36C73 16.1177 56.6584 0 36.5 0C16.3416 0 0 16.1177 0 36C0 55.8823 16.3416 72 36.5 72Z" fill="#EFFCF6"/>
<circle cx="36" cy="36" r="23" fill="#4F8C82"/>
<path d="M32 27H43C43.2652 27 43.5196 27.1054 43.7071 27.2929C43.8946 27.4804 44 27.7348 44 28V46C44 46.2652 43.8946 46.5196 43.7071 46.7071C43.5196 46.8946 43.2652 47 43 47H31C30.7348 47 30.4804 46.8946 30.2929 46.7071C30.1054 46.5196 30 46.2652 30 46V25H32V27ZM32 29V34H42V29H32Z" fill="#EFFCF6"/>
</svg>
