<svg width="130" height="128" viewBox="0 0 130 128" fill="none" xmlns="http://www.w3.org/2000/svg">
<path fill-rule="evenodd" clip-rule="evenodd" d="M52.1122 103.804C77.1635 111.463 103.68 97.3636 111.339 72.3123C118.998 47.261 104.899 20.7441 79.8477 13.0851C54.7964 5.42617 28.2795 19.5255 20.6205 44.5768C12.9616 69.6281 27.0609 96.145 52.1122 103.804Z" fill="#527C5A"/>
<g filter="url(#filter0_d)">
<path fill-rule="evenodd" clip-rule="evenodd" d="M6.87751 73.6011C4.39163 75.2086 4.45259 78.8657 6.99067 80.3895L56.3696 110.034C62.6596 113.811 70.5616 113.628 76.6705 109.566L121.994 79.4245C125.804 76.8906 125.489 71.1954 121.423 69.0967L69.3211 42.2045C64.5433 39.7385 58.8111 40.0182 54.2962 42.9378L6.87751 73.6011Z" fill="white"/>
</g>
<rect x="52.3334" y="62" width="36.6667" height="10.8889" rx="2" fill="#8D9DDC"/>
<rect x="56" y="65.1111" width="36.6667" height="10.8889" rx="2" fill="#B3BFF0"/>
<rect x="35" y="38" width="54.4444" height="17.7778" rx="2" fill="#95B19B"/>
<rect x="38.3333" y="40.2222" width="54.4444" height="17.7778" rx="2" fill="#E1EEDA"/>
<path d="M43.8889 48.5556L48.3334 52.4445L53.3334 45.7778" stroke="#527C5A" stroke-width="2"/>
<defs>
<filter id="filter0_d" x="0.0495605" y="37.5337" width="129.622" height="82.2109" filterUnits="userSpaceOnUse" color-interpolation-filters="sRGB">
<feFlood flood-opacity="0" result="BackgroundImageFix"/>
<feColorMatrix in="SourceAlpha" type="matrix" values="0 0 0 0 0 0 0 0 0 0 0 0 0 0 0 0 0 0 127 0"/>
<feOffset dy="2"/>
<feGaussianBlur stdDeviation="2.5"/>
<feColorMatrix type="matrix" values="0 0 0 0 0.00135416 0 0 0 0 0.1625 0 0 0 0 0.134936 0 0 0 0.15 0"/>
<feBlend mode="normal" in2="BackgroundImageFix" result="effect1_dropShadow"/>
<feBlend mode="normal" in="SourceGraphic" in2="effect1_dropShadow" result="shape"/>
</filter>
</defs>
</svg>
