<svg width="156" height="131" viewBox="0 0 156 131" fill="none" xmlns="http://www.w3.org/2000/svg">
<path fill-rule="evenodd" clip-rule="evenodd" d="M0.101077 19C0.101077 19 13.8759 49.7001 13.8759 63.6027C13.8759 77.5053 0 87.9077 0 87.9077L0.101077 19Z" fill="#4F8C82"/>
<path fill-rule="evenodd" clip-rule="evenodd" d="M0.101074 63.6027C0.101074 63.6027 16.4 92.9077 16.4 107.908C16.4 122.908 0.101074 130.073 0.101074 130.073V63.6027Z" fill="#BBD3CF"/>
<path fill-rule="evenodd" clip-rule="evenodd" d="M155.073 0.101077C155.073 0.101077 124.373 13.8759 110.471 13.8759C96.568 13.8759 86.1655 -3.01205e-06 86.1655 -3.01205e-06L155.073 0.101077Z" fill="#4F8C82" fill-opacity="0.72"/>
<path fill-rule="evenodd" clip-rule="evenodd" d="M110.471 0.101074C110.471 0.101074 81.1657 16.4 66.1657 16.4C51.1657 16.4 44.0004 0.101071 44.0004 0.101071L110.471 0.101074Z" fill="#BBD3CF"/>
</svg>
