<svg width="130" height="128" viewBox="0 0 130 128" fill="none" xmlns="http://www.w3.org/2000/svg">
<path fill-rule="evenodd" clip-rule="evenodd" d="M52.1122 103.804C77.1635 111.463 103.68 97.3636 111.339 72.3123C118.998 47.261 104.899 20.7441 79.8477 13.0851C54.7964 5.42617 28.2795 19.5255 20.6205 44.5768C12.9616 69.6281 27.0609 96.145 52.1122 103.804Z" fill="#527C5A"/>
<g filter="url(#filter0_d)">
<path fill-rule="evenodd" clip-rule="evenodd" d="M6.87751 73.6011C4.39163 75.2086 4.45259 78.8657 6.99067 80.3895L56.3696 110.034C62.6596 113.811 70.5616 113.628 76.6705 109.566L121.994 79.4245C125.804 76.8906 125.489 71.1954 121.423 69.0967L69.3211 42.2045C64.5433 39.7385 58.8111 40.0182 54.2962 42.9378L6.87751 73.6011Z" fill="white"/>
</g>
<path d="M86.2082 43.2359C86.5096 42.5553 86.4081 41.7637 85.9447 41.1812L71.5646 23.1014C70.623 21.9177 68.759 22.1671 68.1618 23.5567L48.8876 68.4047C48.617 69.0342 48.6876 69.7583 49.0745 70.3238L62.3105 89.6667C63.1952 90.9596 65.1555 90.7794 65.7898 89.347L86.2082 43.2359Z" fill="#95B19B"/>
<path d="M84.0374 42.6321C84.3403 41.948 84.2361 41.152 83.7673 40.569L69.3117 22.5914C68.3667 21.4162 66.5106 21.6697 65.9154 23.0552L46.8905 67.3406C46.6185 67.9739 46.6916 68.7026 47.0841 69.2691L60.4029 88.4929C61.2921 89.7764 63.2434 89.5914 63.8756 88.1637L84.0374 42.6321Z" fill="#CFDFC7"/>
<path d="M82.72 42.5543L67.2492 23.9924L50.1923 62.5077L65.0483 81.7655L82.72 42.5543Z" fill="#E3F0DC"/>
<ellipse cx="54.594" cy="73.5127" rx="1.65068" ry="2.2009" fill="#95B19B"/>
<path d="M91.4121 81.2091C88.1321 84.5917 82.8427 84.5621 79.5978 81.143C76.3529 77.724 77.8806 72.2102 81.1605 68.8276C84.4405 65.445 89.4522 65.4086 92.6971 68.8277C95.9421 72.2467 94.692 77.8265 91.4121 81.2091Z" fill="#8D9DDC"/>
<path d="M90.0738 79.4453C86.963 82.6534 81.9465 82.6253 78.8689 79.3826C75.7914 76.1399 77.2403 70.9106 80.3511 67.7025C83.4618 64.4944 88.215 64.4599 91.2925 67.7025C94.3701 70.9452 93.1845 76.2372 90.0738 79.4453Z" fill="#B3BFF0"/>
<path d="M94.6081 59.7503C92.4215 62.0054 88.8952 61.9857 86.7319 59.7063C84.5686 57.4269 85.5871 53.751 87.7737 51.496C89.9604 49.2409 93.3015 49.2167 95.4648 51.496C97.6281 53.7754 96.7947 57.4953 94.6081 59.7503Z" fill="#8D9DDC"/>
<path d="M93.7159 58.5745C91.6421 60.7133 88.2977 60.6945 86.246 58.5328C84.1944 56.371 85.1603 52.8847 87.2341 50.746C89.3079 48.6073 92.4768 48.5842 94.5284 50.746C96.5801 52.9078 95.7897 56.4358 93.7159 58.5745Z" fill="#B3BFF0"/>
<defs>
<filter id="filter0_d" x="0.0495605" y="37.5337" width="129.622" height="82.2109" filterUnits="userSpaceOnUse" color-interpolation-filters="sRGB">
<feFlood flood-opacity="0" result="BackgroundImageFix"/>
<feColorMatrix in="SourceAlpha" type="matrix" values="0 0 0 0 0 0 0 0 0 0 0 0 0 0 0 0 0 0 127 0"/>
<feOffset dy="2"/>
<feGaussianBlur stdDeviation="2.5"/>
<feColorMatrix type="matrix" values="0 0 0 0 0.00135416 0 0 0 0 0.1625 0 0 0 0 0.134936 0 0 0 0.15 0"/>
<feBlend mode="normal" in2="BackgroundImageFix" result="effect1_dropShadow"/>
<feBlend mode="normal" in="SourceGraphic" in2="effect1_dropShadow" result="shape"/>
</filter>
</defs>
</svg>
